PathFileType	4	(X/Y/Z)	23_1_tpose_p1_0-150.trc
DataRate	CameraRate	NumFrames	NumMarkers	Units	OrigDataRate	OrigDataStartFrame	OrigNumFrames
59.0	59.0	6	27	m	59.0	18	151
Frame#	Time	RHip			RKnee			RAnkle			RBigToe			RSmallToe			RHeel			LHip			LKnee			LAnkle			LBigToe			LSmallToe			LHeel			Neck			Head			Nose			RShoulder			RElbow			RWrist			RThumb			RIndex			RPinky			LShoulder			LElbow			LWrist			LThumb			LIndex			LPinky			
		X1	Y1	Z1	X2	Y2	Z2	X3	Y3	Z3	X4	Y4	Z4	X5	Y5	Z5	X6	Y6	Z6	X7	Y7	Z7	X8	Y8	Z8	X9	Y9	Z9	X10	Y10	Z10	X11	Y11	Z11	X12	Y12	Z12	X13	Y13	Z13	X14	Y14	Z14	X15	Y15	Z15	X16	Y16	Z16	X17	Y17	Z17	X18	Y18	Z18	X19	Y19	Z19	X20	Y20	Z20	X21	Y21	Z21	X22	Y22	Z22	X23	Y23	Z23	X24	Y24	Z24	X25	Y25	Z25	X26	Y26	Z26	X27	Y27	Z27	
18	0.3050847457627119	0.15837969393123988	0.4763722882363655	0.9757642285961663	0.1761482634837468	0.5155518522469721	1.4024280951949488	0.169816535090549	0.529726741955142	1.806229051938778	0.1388787201472785	0.4058814900789745	1.8322613830291492	0.19887638091272344	0.42875311787505116	1.8379878460885968	0.1591292003094542	0.6002241708415988	1.8949192191102822	-0.042867388621151435	0.5036534870649322	0.97941252571711	-0.03126419485893028	0.5448653290909911	1.4033705202917413	-0.03027465283407745	0.5779611264761332	1.815892897575798	-0.031313843653735234	0.3979522961130251	1.803524135408024	-0.08526771434958899	0.45060406406267883	1.8178881760417818	-0.021396483511212434	0.6389361787115186	1.8805251168408623	0.05040850487543583	0.4812700530487661	0.4324338619845119	0.06203709924748631	0.4212518631054627	0.204279657822692	0.03014535938300135	0.3306095585484311	0.3070755249691514	0.19889489940715174	0.41669247754179567	0.47124333785911665	0.46896091626828157	0.44294684459591693	0.4670297079720808	0.6925178486917476	0.397016259021164	0.4573546459115204	0.7989193618711653	0.3771451422913152	0.45639315800484714	0.8070431032654728	0.39242675748301653	0.4578652599055332	0.7700075587701557	0.38526255862758746	0.4741450214744108	-0.11434124516380925	0.4797369891603344	0.4759242074973648	-0.3417441754253095	0.5248533639415331	0.4714915064519569	-0.5831692425543431	0.5735723992497408	0.42596703477583064	-0.6593139680435324	0.579793924751264	0.4287004930099249	-0.6671335777395857	0.5840923939481728	0.4161278909897387	-0.6668183620641387	0.6139753390474323	0.41823171074752147
19	0.3220338983050847	0.15299767302788442	0.4641211356118969	0.972082509045865	0.1761193211708187	0.5154723612046092	1.4022879405963882	0.16987583515041052	0.5300136424154438	1.8061564875576628	0.13916148949613227	0.4061361127463856	1.832253746462789	0.19394064028524483	0.41602033533893146	1.8301792581991156	0.16509381538562926	0.6146220489055862	1.9032626465157954	-0.04287251740173325	0.5035179798102072	0.9793074435457311	-0.03125296676283878	0.5447557487133331	1.4032937286084461	-0.030246395514419697	0.5780010303672611	1.8158869082053135	-0.031212647733159484	0.397964780882442	1.8035720699229094	-0.08533684863631531	0.45192779875460454	1.8144619328618332	-0.022437994095631363	0.6396759078563689	1.8864441184055771	0.05040550872999221	0.48128461551732155	0.43243514126166394	0.06208309506714778	0.4213404584147023	0.20431887647370514	0.03424097802031168	0.34048391570106584	0.3076489694341641	0.19892251283994813	0.41675148859392414	0.47127724667342324	0.4689203885356207	0.4428167527314426	0.46700465304642635	0.6925342437437265	0.39682994658685133	0.45729156125953463	0.8027154289085393	0.36830018288738864	0.4511291947254391	0.8142982670194528	0.4044354530792195	0.45878032716113576	0.7703434443581323	0.385057346791892	0.47344574197702577	-0.11436017594330093	0.47975270732694253	0.4759208235943013	-0.34159128418750806	0.5250304758614526	0.4714914796746821	-0.5832228684576655	0.5736615119574945	0.4259723267526285	-0.6467662978382267	0.5474642538285879	0.4255962185062054	-0.6672898442945049	0.5845962528560117	0.4160223021444737	-0.6669799961822366	0.6147761471915625	0.4180204919684882
20	0.3389830508474576	0.15848877724451224	0.4762423525681778	0.9754538384484644	0.17617950216791303	0.5156090102184353	1.4023779010997262	0.16985015737364953	0.5299432370259354	1.8060762974884326	0.13952692400255678	0.4066527836552259	1.8323606796541385	0.1943251427269059	0.416798255099262	1.8304970135075427	0.16507643093082836	0.6144863272864597	1.903176908589011	-0.042808942168438495	0.5035341863546065	0.9793355524781745	-0.030418367039567143	0.5445385804456684	1.3991401852960605	-0.03023960701002618	0.5780330937716243	1.8159229761944642	-0.031154359430525722	0.39808213811077087	1.803660618323079	-0.08523601721645707	0.4520360055362252	1.8145741911304452	-0.022424974201781196	0.6397552494887466	1.8865179190965413	0.05063955472330715	0.48148371397129774	0.4288372873970786	0.062017879003975526	0.421424257259659	0.20423872478790955	0.030134389559030552	0.3306442148840481	0.30705378840388314	0.19943239770577736	0.4176822625887035	0.47491300720042445	0.46897212090110363	0.44310279187133056	0.46705391488321546	0.6872790739213966	0.40126572754227796	0.457956688115215	0.8071336398841708	0.36012136456428656	0.449820889962959	0.8160110831096359	0.37779872119128083	0.4519024675723394	0.7702559796757401	0.385265134982286	0.4687904875988035	-0.11432769573324149	0.4798335918837777	0.4759222189150637	-0.3416978003935048	0.5252062963599184	0.47150811243590834	-0.583234962577481	0.5737228131827878	0.4259596147060054	-0.6598877156494458	0.5820467573079685	0.42332894792515713	-0.6672327821777605	0.5846952601163857	0.4160310757345445	-0.6669488961983034	0.614972006272614	0.4179905066458957
21	0.3559322033898305	0.15842341659432754	0.4762259863715969	0.9755402288494668	0.1761617203948633	0.515566238024781	1.4023676502662559	0.1699246630881383	0.5302427296874038	1.8061550671155941	0.13942048342309418	0.4089981779530237	1.829147640949167	0.19330396306597242	0.4162528483471636	1.826029060279735	0.1626535861380581	0.6318509333875514	1.9132044664568115	-0.04276060993472475	0.5026480893666433	0.9829352464930223	-0.03122658631207856	0.5448413453945365	1.403228515445694	-0.03023236319813988	0.5780717399516412	1.815926048073187	-0.036419950604171046	0.38375648152960967	1.7903001021006362	-0.08510745291752914	0.45195344819267164	1.814242013885317	-0.02120742655953148	0.6398005175255893	1.88120284421874	0.050642138560277355	0.4814511667529219	0.42883986590438006	0.06196555118325885	0.4213215895756538	0.20422543722381212	0.03014894698579295	0.33066678782365816	0.30705639834882126	0.1989511023659579	0.41681524683305043	0.47129579133505095	0.46895872332637584	0.4431113441761553	0.46702605018342946	0.6924551949384304	0.4101020099638782	0.45580387242320225	0.8088845601515698	0.37887719999568453	0.45189662411383263	0.8246651568112983	0.4093796530862255	0.455303694413512	0.7764035656571742	0.3980027179673907	0.46600112217601186	-0.11432444933547731	0.4797469816216265	0.4759469931418342	-0.34164367715375554	0.5253241440346073	0.47155401913366285	-0.5832358998891823	0.5737541599589779	0.42600180767738155	-0.6591907415144336	0.5793858080913146	0.42880381223272607	-0.667229573581534	0.5848929104797478	0.4159937201571899	-0.6669280824754509	0.6153055907469356	0.4179681385085136
22	0.3728813559322034	0.1584857589246994	0.4762180996054035	0.9754372451540222	0.17620058956204918	0.5154785722245502	1.4022932623093114	0.16987908014252764	0.5302019005250757	1.8058837354245572	0.13914998172748752	0.4081980455499232	1.828618216450514	0.19815030097222414	0.42740673771303256	1.8324422348899891	0.16265446733004083	0.6317949893843369	1.9127485423347745	-0.04284971863268515	0.5035131295205281	0.9793504300864465	-0.030437149630608614	0.5445111818831716	1.3991502513154692	-0.030227273624992935	0.5780551487266982	1.8158658879029501	-0.030917593423881118	0.39784877864915147	1.8030559612588821	-0.08487265662233037	0.45145900788441895	1.8137399249038197	-0.021244647125283598	0.63975770391204	1.8811639506643596	0.05064313581476724	0.48151753226043303	0.42878915645730425	0.061991425547636925	0.42138943118465666	0.20423778274248647	0.030104352531748615	0.3305876591481583	0.3070031785917538	0.19894276400100125	0.4168304861208454	0.4712632149483925	0.4689502319497486	0.44301681381438435	0.46705952580263443	0.6922621825152117	0.39679365678979706	0.45724400823073713	0.8090378907244186	0.38308695925658415	0.45289463034575106	0.8248960301428357	0.4116978358040726	0.4560391289468683	0.7691141514760244	0.3746291523177282	0.4653725922140108	-0.11434170403219143	0.47986834631945274	0.47593890453657384	-0.3416134445128045	0.5262556070692301	0.4750632802857553	-0.5832269734785034	0.5736997869504412	0.4259759441286375	-0.6591957914405769	0.5794048956177006	0.4288350051352862	-0.667218321642087	0.585003334523544	0.41604936946610654	-0.666903127735864	0.6153602533681704	0.41795910618391363
23	0.3898305084745763	0.1584612424634764	0.4761880540442981	0.9754385753692042	0.17616388626592588	0.5154308461404296	1.4022991373302214	0.16987701023421023	0.5301841733865972	1.805930274774735	0.1343679908662221	0.396787181983628	1.8218199415517202	0.19287629857830424	0.41545292017437424	1.8255756476889013	0.16264980730157355	0.6318398607040329	1.9129907146846956	-0.04285236892336776	0.5035344867493373	0.9793415103732166	-0.03043630489112928	0.5444826262241985	1.399078305103255	-0.030235139171371668	0.5780281428054825	1.8158072664877012	-0.030950425137792087	0.3979880512142849	1.8031308327033775	-0.0849405048676358	0.4516408841637563	1.813888125699882	-0.021175167260375636	0.6400283104453102	1.8813262464541616	0.050643068610268856	0.48148672350349725	0.4287686000921091	0.061992581620373445	0.42142647682502177	0.20428729457909964	0.03010675216655456	0.3306009276980937	0.30695184309412016	0.19893970794990207	0.41675758078644976	0.4712404127974181	0.469000036844521	0.4430169400742845	0.4670452606167877	0.6881036696327384	0.3971783427258318	0.457358386869733	0.8198193234573883	0.41552058255113067	0.46014482765486137	0.8388540926553312	0.43749024380851803	0.461913537327257	0.7831717473141206	0.4017984321575334	0.46787021895518355	-0.11434910656952436	0.4797961891178368	0.4759130935940285	-0.3416431622682925	0.5260316731846971	0.475036610035124	-0.5853502874015573	0.5603017431812127	0.42466110294241943	-0.6590886516561231	0.5790945207535313	0.42875414381681803	-0.667193916308492	0.5850873116599742	0.4159769390776912	-0.666895082064407	0.6153169521578067	0.41788325844583246
